<?xml version="1.0" encoding="UTF-8" standalone="no"?>
<!-- Created with Inkscape (http://www.inkscape.org/) -->

<svg
   width="122.42613"
   height="122.47826"
   viewBox="0 0 32.391914 32.405705"
   version="1.1"
   id="svg404"
   xml:space="preserve"
   inkscape:export-filename="whatsapp.svg"
   inkscape:export-xdpi="96"
   inkscape:export-ydpi="96"
   xmlns:inkscape="http://www.inkscape.org/namespaces/inkscape"
   xmlns:sodipodi="http://sodipodi.sourceforge.net/DTD/sodipodi-0.dtd"
   xmlns="http://www.w3.org/2000/svg"
   xmlns:svg="http://www.w3.org/2000/svg"><sodipodi:namedview
     id="namedview406"
     pagecolor="#ffffff"
     bordercolor="#cccccc"
     borderopacity="1"
     inkscape:showpageshadow="false"
     inkscape:pageopacity="0"
     inkscape:pagecheckerboard="false"
     inkscape:deskcolor="#d1d1d1"
     inkscape:document-units="mm"
     showgrid="false"
     showguides="true" /><defs
     id="defs401" /><g
     inkscape:label="Capa 1"
     inkscape:groupmode="layer"
     id="layer1"
     transform="translate(46.197962,-34.325106)"><ellipse
       style="fill:#ffffff;fill-opacity:1;stroke-width:0.499999"
       id="path5359"
       cx="-31.558273"
       cy="50.508278"
       rx="12.95589"
       ry="13.751017"
       inkscape:label="path5359" /></g><g
     inkscape:groupmode="layer"
     id="layer2"
     inkscape:label="Capa 2"><path
       style="fill:#01a60e;fill-opacity:1;stroke-width:0.264583"
       d="m -33.247205,66.362529 c -3.620699,-0.829712 -5.913234,-2.128522 -8.425559,-4.773408 -2.082353,-2.192227 -3.299383,-4.364088 -4.016356,-7.167423 -1.414399,-5.530252 0.162454,-11.327275 4.199527,-15.438819 1.883572,-1.918316 3.772929,-3.074453 6.787179,-4.153217 1.879748,-0.67274 7.645252,-0.67274 9.525001,0 5.500849,1.968688 9.084321,5.483685 10.729254,10.524231 0.519702,1.592519 0.637251,2.506567 0.642006,4.992166 0.0067,3.510656 -0.297151,4.838393 -1.762924,7.702934 -3.228274,6.308987 -10.828529,9.883177 -17.678128,8.313536 z m -3.834501,-6.537526 2.193198,-0.575222 1.752248,0.575222 c 5.723305,1.878828 11.437343,-1.293402 13.023144,-7.229985 0.497925,-1.86403 0.44509,-3.334978 -0.187209,-5.211927 -1.555072,-4.616164 -5.353296,-7.255433 -10.146382,-7.050405 -1.711151,0.07319 -2.455924,0.247081 -3.723164,0.869272 -2.01776,0.990683 -3.79117,2.764092 -4.781852,4.781852 -1.088292,2.216568 -1.23653,5.454108 -0.363024,7.928422 l 0.600213,1.700173 -0.573628,1.974199 c -0.645993,2.223255 -0.704783,2.813622 -0.280183,2.813622 0.161393,0 1.280383,-0.25885 2.486639,-0.575223 z m 5.554292,-1.509344 c -0.582083,-0.106974 -1.488501,-0.401908 -2.014259,-0.655405 -0.8195,-0.395129 -1.13247,-0.416454 -2.192949,-0.149424 -0.68036,0.171318 -1.30842,0.240086 -1.395688,0.152821 -0.08726,-0.08727 -0.0095,-0.691512 0.172863,-1.342766 0.303715,-1.084767 0.279032,-1.290714 -0.294219,-2.454984 -0.910725,-1.84967 -0.899517,-5.2696 0.02315,-7.065761 0.863597,-1.681158 2.282343,-3.102711 3.871404,-3.879067 1.056746,-0.516284 1.697295,-0.632219 3.417195,-0.618485 3.940593,0.03147 6.630178,1.953088 7.783116,5.560783 0.476425,1.4908 0.274696,4.702225 -0.380325,6.054563 -1.537891,3.17509 -5.389974,5.059389 -8.990291,4.397725 z m 6.097443,-3.856533 c 1.060111,-1.060108 0.8665,-1.804278 -0.654799,-2.516814 l -1.304232,-0.61087 -0.641464,0.745744 -0.641461,0.745744 -1.212017,-0.71029 c -0.666607,-0.39066 -1.475629,-1.080498 -1.79782,-1.532978 -0.556702,-0.781814 -0.564255,-0.85917 -0.152011,-1.557043 0.408805,-0.692053 0.401418,-0.812258 -0.128219,-2.086708 -0.428578,-1.031269 -0.694979,-1.350354 -1.122051,-1.343938 -1.081992,0.01627 -2.017263,1.20297 -2.012762,2.55388 0.0059,1.773854 2.857236,5.179862 5.34684,6.386989 1.631651,0.791136 3.486801,0.759481 4.319996,-0.07372 z"
       id="path3228"
       sodipodi:nodetypes="ssssssssssscssssssscssssssscsssssssssscccssssccsss"
       inkscape:label="path3228"
       transform="translate(46.197962,-34.325108)" /></g></svg>
